<?xml version="1.0" encoding="utf-8"?>
<!-- Generator: Adobe Illustrator 16.0.0, SVG Export Plug-In . SVG Version: 6.00 Build 0)  -->
<!DOCTYPE svg PUBLIC "-//W3C//DTD SVG 1.1//EN" "http://www.w3.org/Graphics/SVG/1.1/DTD/svg11.dtd">
<svg version="1.1" id="Layer_1" xmlns="http://www.w3.org/2000/svg" xmlns:xlink="http://www.w3.org/1999/xlink" x="0px" y="0px"
	 width="38px" height="38px" viewBox="0 0 38 38" enable-background="new 0 0 38 38" xml:space="preserve">
<path fill="#FFFFFF" d="M19,0.294C8.669,0.294,0.294,8.669,0.294,19c0,10.33,8.375,18.705,18.706,18.705S37.705,29.33,37.705,19
	C37.705,8.669,29.331,0.294,19,0.294z M25.451,10.51c-0.504-0.155-1.023-0.271-1.799-0.271c-1.938,0-2.652,1.512-2.652,3.372V14h4v4
	h-4v15h-6V18h-3v-4h3v-0.157c0-2.286,0.653-4.806,2.358-6.355c1.473-1.396,3.504-1.899,5.209-1.899c1.317,0,2.314,0.155,3.128,0.388
	L25.451,10.51z"/>
</svg>
