<?xml version="1.0" encoding="utf-8"?>
<!-- Generator: Adobe Illustrator 16.0.0, SVG Export Plug-In . SVG Version: 6.00 Build 0)  -->
<!DOCTYPE svg PUBLIC "-//W3C//DTD SVG 1.1//EN" "http://www.w3.org/Graphics/SVG/1.1/DTD/svg11.dtd">
<svg version="1.1" id="Layer_1" xmlns="http://www.w3.org/2000/svg" xmlns:xlink="http://www.w3.org/1999/xlink" x="0px" y="0px"
	 width="38px" height="77.375px" viewBox="0 0 38 77.375" enable-background="new 0 0 38 77.375" xml:space="preserve">
<path fill="#FFFFFF" d="M19,0C8.669,0,0.294,8.375,0.294,18.706C0.294,29.036,8.669,37.41,19,37.41s18.705-8.375,18.705-18.704
	C37.705,8.375,29.331,0,19,0z M25.451,10.216c-0.504-0.155-1.023-0.271-1.799-0.271c-1.938,0-2.652,1.512-2.652,3.372V14h4v4h-4v15
	h-6V18h-3v-4h3v-0.451c0-2.286,0.653-4.806,2.358-6.355c1.473-1.396,3.504-1.899,5.209-1.899c1.317,0,2.314,0.155,3.128,0.388
	L25.451,10.216z"/>
<path fill="#4AA3E5" d="M19,39C8.669,39,0.294,47.375,0.294,57.706C0.294,68.035,8.669,76.41,19,76.41s18.705-8.375,18.705-18.704
	C37.705,47.375,29.331,39,19,39z M25.451,49.216c-0.504-0.155-1.023-0.271-1.799-0.271c-1.938,0-2.652,1.512-2.652,3.372V53h4v4h-4
	v15h-6V57h-3v-4h3v-0.451c0-2.286,0.653-4.806,2.358-6.355c1.473-1.396,3.504-1.899,5.209-1.899c1.317,0,2.314,0.155,3.128,0.388
	L25.451,49.216z"/>
</svg>
