<?xml version="1.0" encoding="utf-8"?>
<!-- Generator: Adobe Illustrator 16.0.0, SVG Export Plug-In . SVG Version: 6.00 Build 0)  -->
<!DOCTYPE svg PUBLIC "-//W3C//DTD SVG 1.1//EN" "http://www.w3.org/Graphics/SVG/1.1/DTD/svg11.dtd">
<svg version="1.1" id="Layer_1" xmlns="http://www.w3.org/2000/svg" xmlns:xlink="http://www.w3.org/1999/xlink" x="0px" y="0px"
	 width="264px" height="116.667px" viewBox="0 0 264 116.667" enable-background="new 0 0 264 116.667" xml:space="preserve">
<g>
	<g>
		<path fill="#FFFFFF" d="M12.463,100.447c9.239-22.182,32.025-36.534,49.429-51.8c15.918-13.964,33.786-36.031,57.226-34.891
			c-1.295-2.257-2.59-4.514-3.886-6.771C102.548,31.64,76.845,47.051,53.85,60.867c-3.556,2.137-2.399,8.926,2.271,8.386
			c12.58-1.454,24.951-3.937,37.666-4.121c5.561-0.08,11.976-0.014,17.013,2.662c4.569,2.428,2.98,7.701,1.035,11.53
			c-6.754,13.297-26.1,17.072-39.316,19.181c-14.652,2.339-30.169,2.648-44.896,0.746c0.757,2.795,1.514,5.591,2.271,8.386
			c2.571-1.21,5.371-2.224,8.229-2.386c5.77-0.327,5.801-9.329,0-9c-4.531,0.257-8.691,1.694-12.771,3.614
			c-4.558,2.145-1.612,7.884,2.271,8.386c16.728,2.161,34.119,1.287,50.691-1.639c15.491-2.735,34.89-8.783,42.043-24.298
			c2.78-6.029,3.845-13.501-0.809-18.898c-4.295-4.982-11.281-6.269-17.482-6.951c-14.807-1.628-29.977,1.539-44.586,3.619
			c-0.608,0.086-0.579,0.079-1.36,0.169c0.757,2.795,1.514,5.59,2.271,8.386c24.279-14.587,51.227-31.094,64.611-57.112
			c1.597-3.104-0.386-6.601-3.886-6.771C93.543,3.511,73.775,25.838,56.494,41.424C37.399,58.645,14.048,73.413,3.784,98.054
			C1.553,103.411,10.265,105.723,12.463,100.447L12.463,100.447z"/>
	</g>
</g>
<g>
	<g>
		<path fill="#FFFFFF" d="M118.958,107.947c4.378-14.808,21.588-30.626,37.961-28.356c-1.048-1.845-2.096-3.69-3.143-5.535
			c-3.1,11.08-12.712,18.264-19.045,27.424c-1.74,2.518,0.119,5.749,2.689,6.61c9.13,3.06,18.007-1.095,26.391-4.5
			c-1.694-2.203-3.388-4.406-5.082-6.61c-1.584,2.056-2.061,4.206-2.114,6.771c-0.049,2.333,2.086,4.658,4.5,4.5
			c6.794-0.445,11.917-4.217,16.682-8.818c3.635-3.509-1.148-9.938-5.453-7.067c-1.5,1-3,2-4.5,3
			c-4.166,2.777-1.617,9.6,3.468,8.225c2.962-0.8,4.502-2.825,4.804-5.839c-1.5,1.5-3,3-4.5,4.5c0.5,0,1,0,1.5,0
			c-1.295-2.257-2.591-4.514-3.886-6.771c-2.179,3.514-0.813,7.438-0.614,11.271c0.165,3.178,2.73,4.774,5.696,4.339
			c7.546-1.106,13.972-6.448,19.48-11.356c6.858-6.111,12.815-13.181,18.955-19.988c15.14-16.787,33.219-30.404,46.75-48.719
			c2.259-3.057-1.518-8.065-5.082-6.61c-14.427,5.891-23.052,20.087-32.608,31.621c-5.119,6.179-11.791,11.217-17.373,16.992
			c-5.425,5.612-10.217,11.755-13.158,19.026c-1.653,4.084,3.498,6.521,6.61,5.082c2.493-1.153,4.784-1.909,6.909-3.704
			c4.441-3.748-1.959-10.082-6.363-6.363c-1.31,1.105-3.544,1.582-5.089,2.296c2.204,1.694,4.407,3.388,6.61,5.082
			c5.482-13.549,19.131-21.313,28.218-32.046c8.312-9.817,16.188-24.224,28.637-29.307c-1.694-2.204-3.388-4.407-5.082-6.61
			c-12.61,17.069-29.552,29.875-43.898,45.315c-5.505,5.926-10.723,12.096-16.446,17.819c-5.297,5.297-11.723,11.659-19.462,12.794
			c1.898,1.446,3.798,2.893,5.696,4.339c-0.075-1.457-1.361-5.524-0.614-6.729c1.814-2.925-0.543-6.771-3.886-6.771
			c-0.5,0-1,0-1.5,0c-2.638,0-4.256,2.061-4.5,4.5c0.602-0.946,1.202-1.893,1.804-2.839c1.156,2.741,2.312,5.482,3.468,8.225
			c1.5-1,3-2,4.5-3c-1.818-2.356-3.636-4.712-5.453-7.067c-2.866,2.767-6.122,5.906-10.318,6.182c1.5,1.5,3,3,4.5,4.5
			c-0.177-0.904,0.118-1.646,0.886-2.229c2.343-3.039-1.564-8.039-5.082-6.61c-6.675,2.71-14.298,6.948-21.605,4.5
			c0.896,2.203,1.793,4.406,2.689,6.61c6.916-10.005,16.546-17.396,19.951-29.574c0.595-2.126-0.715-5.199-3.143-5.535
			c-21.434-2.972-43.1,14.576-49.033,34.642C108.629,111.133,117.315,113.5,118.958,107.947L118.958,107.947z"/>
	</g>
</g>
</svg>
