<?xml version="1.0" encoding="utf-8"?>
<!-- Generator: Adobe Illustrator 16.0.0, SVG Export Plug-In . SVG Version: 6.00 Build 0)  -->
<!DOCTYPE svg PUBLIC "-//W3C//DTD SVG 1.1//EN" "http://www.w3.org/Graphics/SVG/1.1/DTD/svg11.dtd">
<svg version="1.1" id="Layer_1" xmlns="http://www.w3.org/2000/svg" xmlns:xlink="http://www.w3.org/1999/xlink" x="0px" y="0px"
	 width="38px" height="38px" viewBox="0 0 38 38" enable-background="new 0 0 38 38" xml:space="preserve">
<path fill="#FFFFFF" d="M19,0.294C8.669,0.294,0.294,8.669,0.294,19C0.294,29.33,8.669,37.705,19,37.705
	c10.332,0,18.705-8.375,18.705-18.706C37.705,8.669,29.332,0.294,19,0.294z M28.764,13.99c0.01,0.192,0.014,0.41,0.014,0.652
	c0,1.346-0.195,2.695-0.59,4.045c-0.393,1.35-0.992,2.643-1.799,3.877s-1.77,2.328-2.885,3.281s-2.457,1.713-4.024,2.279
	c-1.566,0.566-3.245,0.85-5.037,0.85c-2.795,0-5.37-0.754-7.723-2.264c0.418,0.047,0.818,0.07,1.202,0.07
	c2.335,0,4.421-0.721,6.257-2.158c-1.088-0.021-2.063-0.355-2.926-1.006c-0.861-0.65-1.454-1.482-1.778-2.494
	c0.321,0.062,0.637,0.092,0.949,0.092c0.449,0,0.892-0.059,1.326-0.176c-1.162-0.232-2.481-0.812-3.247-1.737
	C7.738,18.378,7,17.31,7,16.1v-0.062c0,0.396,1.829,0.605,2.638,0.63c-0.688-0.459-1.056-1.057-1.459-1.795
	s-0.517-1.537-0.517-2.396c0-0.906,0.271-1.75,0.725-2.531c1.264,1.551,2.818,2.79,4.618,3.719c1.799,0.928,3.74,1.443,5.8,1.546
	c-0.088-0.366-0.127-0.749-0.127-1.146c0-1.391,0.495-2.578,1.48-3.562c0.984-0.983,2.17-1.476,3.561-1.476
	c1.455,0,2.687,0.53,3.683,1.59c1.139-0.226,2.205-0.634,3.197-1.224c-0.383,1.205-1.119,2.134-2.213,2.788
	c1.004-0.119,1.969-0.383,2.895-0.791l0,0C30.596,12.406,29.758,13.273,28.764,13.99z"/>
</svg>
